static pose
version=1
nRows=1
nColumns=73
inDegrees=no
endheader
time	/jointset/ground_pelvis/pelvis_tilt/value	/jointset/ground_pelvis/pelvis_tilt/speed	/jointset/ground_pelvis/pelvis_list/value	/jointset/ground_pelvis/pelvis_list/speed	/jointset/ground_pelvis/pelvis_rotation/value	/jointset/ground_pelvis/pelvis_rotation/speed	/jointset/ground_pelvis/pelvis_tx/value	/jointset/ground_pelvis/pelvis_tx/speed	/jointset/ground_pelvis/pelvis_ty/value	/jointset/ground_pelvis/pelvis_ty/speed	/jointset/ground_pelvis/pelvis_tz/value	/jointset/ground_pelvis/pelvis_tz/speed	/jointset/hip_r/hip_flexion_r/value	/jointset/hip_r/hip_flexion_r/speed	/jointset/hip_r/hip_adduction_r/value	/jointset/hip_r/hip_adduction_r/speed	/jointset/hip_r/hip_rotation_r/value	/jointset/hip_r/hip_rotation_r/speed	/jointset/knee_r/knee_angle_r/value	/jointset/knee_r/knee_angle_r/speed	/jointset/ankle_r/ankle_angle_r/value	/jointset/ankle_r/ankle_angle_r/speed	/jointset/mtp_r/mtp_angle_r/value	/jointset/mtp_r/mtp_angle_r/speed	/jointset/hip_l/hip_flexion_l/value	/jointset/hip_l/hip_flexion_l/speed	/jointset/hip_l/hip_adduction_l/value	/jointset/hip_l/hip_adduction_l/speed	/jointset/hip_l/hip_rotation_l/value	/jointset/hip_l/hip_rotation_l/speed	/jointset/knee_l/knee_angle_l/value	/jointset/knee_l/knee_angle_l/speed	/jointset/ankle_l/ankle_angle_l/value	/jointset/ankle_l/ankle_angle_l/speed	/jointset/mtp_l/mtp_angle_l/value	/jointset/mtp_l/mtp_angle_l/speed	/forceset/hamstrings_r/activation	/forceset/hamstrings_r/normalized_tendon_force	/forceset/bifemsh_r/activation	/forceset/bifemsh_r/normalized_tendon_force	/forceset/glut_max_r/activation	/forceset/glut_max_r/normalized_tendon_force	/forceset/iliopsoas_r/activation	/forceset/iliopsoas_r/normalized_tendon_force	/forceset/rect_fem_r/activation	/forceset/rect_fem_r/normalized_tendon_force	/forceset/vasti_r/activation	/forceset/vasti_r/normalized_tendon_force	/forceset/gastroc_r/activation	/forceset/gastroc_r/normalized_tendon_force	/forceset/soleus_r/activation	/forceset/soleus_r/normalized_tendon_force	/forceset/dorsiflexors_r/activation	/forceset/dorsiflexors_r/normalized_tendon_force	/forceset/hamstrings_l/activation	/forceset/hamstrings_l/normalized_tendon_force	/forceset/bifemsh_l/activation	/forceset/bifemsh_l/normalized_tendon_force	/forceset/glut_max_l/activation	/forceset/glut_max_l/normalized_tendon_force	/forceset/iliopsoas_l/activation	/forceset/iliopsoas_l/normalized_tendon_force	/forceset/rect_fem_l/activation	/forceset/rect_fem_l/normalized_tendon_force	/forceset/vasti_l/activation	/forceset/vasti_l/normalized_tendon_force	/forceset/gastroc_l/activation	/forceset/gastroc_l/normalized_tendon_force	/forceset/soleus_l/activation	/forceset/soleus_l/normalized_tendon_force	/forceset/dorsiflexors_l/activation	/forceset/dorsiflexors_l/normalized_tendon_force
      0.00000000	     -0.01832016	      0.00000000	      0.01922333	      0.00000000	      0.02719389	      0.00000000	      0.81103524	      0.00000000	      0.95413453	      0.00000000	      1.23140695	      0.00000000	     -0.03469418	      0.00000000	     -0.09096202	      0.00000000	      0.03388135	      0.00000000	      0.02649663	      0.00000000	     -0.15898038	      0.00000000	      0.00000000	      0.00000000	     -0.02777657	      0.00000000	     -0.05473186	      0.00000000	      0.05151590	      0.00000000	      0.01676876	      0.00000000	     -0.14943598	      0.00000000	      0.00000000	      0.00000000	      0.05000000	      0.50000000	      0.05000000	      0.50000000	      0.05000000	      0.50000000	      0.05000000	      0.50000000	      0.05000000	      0.50000000	      0.05000000	      0.50000000	      0.05000000	      0.50000000	      0.05000000	      0.50000000	      0.05000000	      0.50000000	      0.05000000	      0.50000000	      0.05000000	      0.50000000	      0.05000000	      0.50000000	      0.05000000	      0.50000000	      0.05000000	      0.50000000	      0.05000000	      0.50000000	      0.05000000	      0.50000000	      0.05000000	      0.50000000	      0.05000000	      0.50000000
